<svg width="516" height="516" viewBox="0 0 516 516" fill="none" xmlns="http://www.w3.org/2000/svg">
<rect width="516" height="516" fill="white"/>
<path d="M271.323 117.42C281.801 117.42 290.726 119.227 298.099 122.842C305.601 126.327 311.292 131.362 315.173 137.945C319.183 144.529 321.188 152.533 321.188 161.956C321.188 167.507 320.347 172.994 318.665 178.415C316.984 183.837 314.268 188.807 310.516 193.325C306.895 197.715 302.044 201.265 295.964 203.975C289.885 206.557 282.512 207.848 273.845 207.848H253.279V258H232.518V117.42H271.323ZM273.845 187.904C279.019 187.904 283.353 187.065 286.845 185.386C290.338 183.579 293.054 181.32 294.994 178.609C297.064 175.898 298.487 173.123 299.263 170.283C300.168 167.314 300.621 164.667 300.621 162.344C300.621 159.762 300.168 157.051 299.263 154.211C298.487 151.242 297.129 148.531 295.188 146.078C293.248 143.496 290.596 141.431 287.233 139.882C283.87 138.204 279.666 137.365 274.622 137.365H253.279V187.904H273.845Z" fill="#FF813A"/>
<path d="M357.083 194.659C365.706 194.659 373.869 196.266 381.573 199.479C389.277 202.806 396.118 207.396 402.097 213.249C408.076 219.101 412.732 225.871 416.067 233.559C419.516 241.247 421.241 249.509 421.241 258.344C421.241 267.065 419.516 275.269 416.067 282.958C412.732 290.646 408.076 297.473 402.097 303.44C396.118 309.407 389.277 314.054 381.573 317.382C373.869 320.709 365.706 322.373 357.083 322.373C348.229 322.373 339.951 320.709 332.247 317.382C324.544 314.054 317.76 309.407 311.896 303.44C306.032 297.588 301.433 290.76 298.099 282.958C294.879 275.269 293.27 267.065 293.27 258.344C293.27 249.509 294.879 241.247 298.099 233.559C301.318 225.871 305.802 219.101 311.551 213.249C317.415 207.396 324.199 202.806 331.902 199.479C339.721 196.266 348.114 194.659 357.083 194.659ZM357.083 213.593C350.644 213.593 344.608 214.74 338.973 217.035C333.455 219.445 328.568 222.715 324.314 226.846C320.175 230.977 316.898 235.739 314.483 241.132C312.184 246.64 311.034 252.549 311.034 258.861C311.034 265.057 312.184 270.852 314.483 276.245C316.898 281.638 320.175 286.343 324.314 290.359C328.568 294.49 333.455 297.703 338.973 299.998C344.608 302.292 350.644 303.44 357.083 303.44C363.521 303.44 369.5 302.235 375.019 299.825C380.653 297.531 385.597 294.318 389.851 290.187C394.106 286.171 397.44 281.409 399.855 275.901C402.269 270.508 403.476 264.713 403.476 258.516C403.476 252.091 402.269 246.181 399.855 240.788C397.44 235.395 394.106 230.633 389.851 226.502C385.597 222.371 380.653 219.158 375.019 216.863C369.385 214.683 363.407 213.593 357.083 213.593Z" fill="#FF813A"/>
<path d="M158.917 317.038C150.294 317.038 142.131 315.431 134.427 312.218C126.723 308.891 119.882 304.301 113.903 298.448C107.924 292.596 103.268 285.826 99.9335 278.138C96.4842 270.45 94.7595 262.188 94.7595 253.353C94.7595 244.632 96.4842 236.428 99.9335 228.739C103.268 221.051 107.925 214.224 113.903 208.257C119.882 202.29 126.723 197.643 134.427 194.315C142.131 190.988 150.294 189.324 158.917 189.324C167.771 189.324 176.049 190.988 183.753 194.315C191.456 197.643 198.24 202.29 204.104 208.257C209.968 214.109 214.567 220.937 217.901 228.739C221.121 236.428 222.73 244.632 222.73 253.353C222.73 262.188 221.121 270.45 217.901 278.138C214.682 285.826 210.198 292.596 204.449 298.448C198.585 304.301 191.801 308.891 184.098 312.218C176.279 315.431 167.886 317.038 158.917 317.038ZM158.917 298.104C165.356 298.104 171.392 296.957 177.026 294.662C182.545 292.252 187.432 288.982 191.686 284.851C195.825 280.72 199.102 275.958 201.517 270.565C203.816 265.057 204.966 259.148 204.966 252.836C204.966 246.64 203.816 240.845 201.517 235.452C199.102 230.059 195.825 225.354 191.686 221.338C187.432 217.207 182.545 213.994 177.026 211.699C171.392 209.405 165.356 208.257 158.917 208.257C152.479 208.257 146.5 209.462 140.981 211.871C135.347 214.166 130.403 217.379 126.149 221.51C121.894 225.526 118.56 230.288 116.145 235.796C113.731 241.189 112.524 246.984 112.524 253.181C112.524 259.606 113.731 265.516 116.145 270.909C118.56 276.302 121.894 281.064 126.149 285.195C130.403 289.326 135.347 292.539 140.981 294.834C146.615 297.014 152.593 298.104 158.917 298.104Z" fill="#FF813A"/>
<path d="M283.611 292.424C285.106 294.145 286.601 296.555 288.096 299.653C289.59 302.752 290.912 306.251 292.062 310.153C293.212 313.939 294.132 317.841 294.822 321.857C295.627 325.873 296.029 329.66 296.029 333.217C296.029 343.315 294.477 352.38 291.372 360.412C288.268 368.445 283.956 375.329 278.437 381.067C272.918 386.804 266.48 391.222 259.121 394.32C251.648 397.303 243.542 398.795 234.803 398.795C224.11 398.795 214.624 397.074 206.346 393.632C198.068 390.189 191.111 385.542 185.477 379.69C179.729 373.723 175.417 366.896 172.542 359.207C169.553 351.405 168.058 343.257 168.058 334.766C168.058 327.308 168.921 320.423 170.645 314.112C172.37 307.686 174.612 302.178 177.371 297.588L194.273 303.612C193.009 305.907 191.801 308.776 190.651 312.218C189.387 315.546 188.409 318.988 187.719 322.545C187.03 326.103 186.685 329.373 186.685 332.356C186.685 339.7 187.777 346.298 189.962 352.15C192.031 357.888 195.078 362.822 199.102 366.953C203.126 371.084 208.013 374.297 213.762 376.592C219.511 378.772 226.007 379.862 233.251 379.862C239.805 379.862 245.841 378.714 251.36 376.419C256.764 374.125 261.478 370.912 265.502 366.781C269.412 362.65 272.458 357.715 274.643 351.978C276.713 346.241 277.748 339.872 277.748 332.873C277.748 328.857 277.345 324.898 276.54 320.996C275.735 317.095 274.586 313.767 273.091 311.013H250.325V335.11H232.561V292.424H283.611Z" fill="#FF813A"/>
</svg>
